name rise30.2954peak35.7071fall66.7804.mot
datacolumns 19
datarows 15
range 14.29161400000000 14.31494600000000
endheader
time	ground_force1_vx	ground_force1_vy	ground_force1_vz	ground_force1_px	ground_force1_py	ground_force1_pz	ground_force2_vx	ground_force2_vy	ground_force2_vz	ground_force2_px	ground_force2_py	ground_force2_pz	ground_torque1_x	ground_torque1_y	ground_torque1_z	ground_torque2_x	ground_torque2_y	ground_torque2_z	
14.29161400000000	4.18572100000000	709.70425000000000	49.94010600000000	0.18513900000000	0.00000000000000	0.15177600000000	0.00000000000000	0.00000000000000	0.00000000000000	0.00000000000000	0.00000000000000	0.00000000000000	0.00000000000000	18.54848100000000	0.00000000000000	0.00000000000000	0.00000000000000	0.00000000000000	
14.29328100000000	3.82723300000000	710.88002800000004	49.97901900000000	0.18406700000000	0.00000000000000	0.15170700000000	0.00000000000000	0.00000000000000	0.00000000000000	0.00000000000000	0.00000000000000	0.00000000000000	0.00000000000000	18.58959300000000	0.00000000000000	0.00000000000000	0.00000000000000	0.00000000000000	
14.29495100000000	3.45422300000000	712.09188600000004	50.02543200000000	0.18297200000000	0.00000000000000	0.15164000000000	0.00000000000000	0.00000000000000	0.00000000000000	0.00000000000000	0.00000000000000	0.00000000000000	0.00000000000000	18.63646200000000	0.00000000000000	0.00000000000000	0.00000000000000	0.00000000000000	
14.29661800000000	3.06652400000000	713.33887900000002	50.07921300000000	0.18185500000000	0.00000000000000	0.15157600000000	0.00000000000000	0.00000000000000	0.00000000000000	0.00000000000000	0.00000000000000	0.00000000000000	0.00000000000000	18.68907500000000	0.00000000000000	0.00000000000000	0.00000000000000	0.00000000000000	
14.29828100000000	2.66402600000000	714.62007600000004	50.14023600000000	0.18071600000000	0.00000000000000	0.15151300000000	0.00000000000000	0.00000000000000	0.00000000000000	0.00000000000000	0.00000000000000	0.00000000000000	0.00000000000000	18.74741500000000	0.00000000000000	0.00000000000000	0.00000000000000	0.00000000000000	
14.29994700000000	2.24667400000000	715.93455300000005	50.20838100000000	0.17955700000000	0.00000000000000	0.15145200000000	0.00000000000000	0.00000000000000	0.00000000000000	0.00000000000000	0.00000000000000	0.00000000000000	0.00000000000000	18.81145900000000	0.00000000000000	0.00000000000000	0.00000000000000	0.00000000000000	
14.30161300000000	1.81446600000000	717.28139199999998	50.28353500000000	0.17838000000000	0.00000000000000	0.15139400000000	0.00000000000000	0.00000000000000	0.00000000000000	0.00000000000000	0.00000000000000	0.00000000000000	0.00000000000000	18.88117700000000	0.00000000000000	0.00000000000000	0.00000000000000	0.00000000000000	
14.30328200000000	1.36745600000000	718.65967599999999	50.36559200000000	0.17718500000000	0.00000000000000	0.15133700000000	0.00000000000000	0.00000000000000	0.00000000000000	0.00000000000000	0.00000000000000	0.00000000000000	0.00000000000000	18.95653000000000	0.00000000000000	0.00000000000000	0.00000000000000	0.00000000000000	
14.30495200000000	0.90574900000000	720.06848400000001	50.45445300000000	0.17597400000000	0.00000000000000	0.15128200000000	0.00000000000000	0.00000000000000	0.00000000000000	0.00000000000000	0.00000000000000	0.00000000000000	0.00000000000000	19.03747500000000	0.00000000000000	0.00000000000000	0.00000000000000	0.00000000000000	
14.30661200000000	0.42950400000000	721.50689000000000	50.55002100000000	0.17475000000000	0.00000000000000	0.15122800000000	0.00000000000000	0.00000000000000	0.00000000000000	0.00000000000000	0.00000000000000	0.00000000000000	0.00000000000000	19.12396100000000	0.00000000000000	0.00000000000000	0.00000000000000	0.00000000000000	
14.30828700000000	-0.06107100000000	722.97395500000005	50.65220800000000	0.17351200000000	0.00000000000000	0.15117700000000	0.00000000000000	0.00000000000000	0.00000000000000	0.00000000000000	0.00000000000000	0.00000000000000	0.00000000000000	19.21592600000000	0.00000000000000	0.00000000000000	0.00000000000000	0.00000000000000	
14.30995200000000	-0.56571700000000	724.46872699999994	50.76092800000000	0.17226500000000	0.00000000000000	0.15112700000000	0.00000000000000	0.00000000000000	0.00000000000000	0.00000000000000	0.00000000000000	0.00000000000000	0.00000000000000	19.31330400000000	0.00000000000000	0.00000000000000	0.00000000000000	0.00000000000000	
14.31161400000000	-1.08412700000000	725.99023199999999	50.87609700000000	0.17100800000000	0.00000000000000	0.15107900000000	0.00000000000000	0.00000000000000	0.00000000000000	0.00000000000000	0.00000000000000	0.00000000000000	0.00000000000000	19.41601700000000	0.00000000000000	0.00000000000000	0.00000000000000	0.00000000000000	
14.31329100000000	-1.61594800000000	727.53747299999998	50.99763800000000	0.16974500000000	0.00000000000000	0.15103200000000	0.00000000000000	0.00000000000000	0.00000000000000	0.00000000000000	0.00000000000000	0.00000000000000	0.00000000000000	19.52398000000000	0.00000000000000	0.00000000000000	0.00000000000000	0.00000000000000	
14.31494600000000	-2.16078300000000	729.10942599999998	51.12547100000000	0.16847600000000	0.00000000000000	0.15098700000000	0.00000000000000	0.00000000000000	0.00000000000000	0.00000000000000	0.00000000000000	0.00000000000000	0.00000000000000	19.63709900000000	0.00000000000000	0.00000000000000	0.00000000000000	0.00000000000000	
